<svg width="24" height="23" viewBox="0 0 24 23" fill="none" xmlns="http://www.w3.org/2000/svg">
<g clip-path="url(#clip0_0_5126)">
<path d="M9.29854 17.1475C7.69726 17.1475 6.39453 18.3935 6.39453 19.9252C6.39453 21.4568 7.69726 22.7029 9.29854 22.7029C10.8998 22.7029 12.2025 21.4568 12.2025 19.9252C12.2025 18.3935 10.8998 17.1475 9.29854 17.1475ZM9.29854 21.0363C8.65791 21.0363 8.13695 20.538 8.13695 19.9252C8.13695 19.3124 8.65791 18.8141 9.29854 18.8141C9.93885 18.8141 10.4601 19.3124 10.4601 19.9252C10.4601 20.5379 9.93917 21.0363 9.29854 21.0363Z" fill="white"/>
<path d="M17.8942 17.1475C16.293 17.1475 14.9902 18.3935 14.9902 19.9252C14.9902 21.4568 16.293 22.7029 17.8942 22.7029C19.4955 22.7029 20.7983 21.4568 20.7983 19.9252C20.7983 18.3935 19.4955 17.1475 17.8942 17.1475ZM17.8942 21.0363C17.2536 21.0363 16.7327 20.538 16.7327 19.9252C16.7327 19.3124 17.2536 18.8141 17.8942 18.8141C18.5349 18.8141 19.0558 19.3124 19.0558 19.9252C19.0558 20.5379 18.5349 21.0363 17.8942 21.0363Z" fill="white"/>
<path d="M22.9325 6.12894C22.7669 5.93004 22.516 5.81424 22.2506 5.81424H6.99595L6.20403 1.98596C6.13462 1.65068 5.85817 1.38986 5.50648 1.3282L2.02168 0.717098C1.54749 0.633481 1.09445 0.933789 1.00762 1.38655C0.920785 1.83931 1.23411 2.27346 1.7075 2.35652L4.60975 2.8654L7.16643 15.226C7.24715 15.6163 7.60522 15.8977 8.02106 15.8977H20.2178C20.6235 15.8977 20.9752 15.6302 21.0667 15.2516L23.0995 6.83505C23.1593 6.58755 23.0977 6.32754 22.9325 6.12894ZM19.5249 14.231H8.73658L7.34063 7.48116H21.1549L19.5249 14.231Z" fill="white"/>
</g>
<defs>
<clipPath id="clip0_0_5126">
<rect width="23" height="22" fill="white" transform="translate(0.557617 0.703125)"/>
</clipPath>
</defs>
</svg>
