<svg width="100" height="100" viewBox="0 0 100 100" fill="none" xmlns="http://www.w3.org/2000/svg">
<circle cx="50" cy="50" r="50" fill="url(#paint0_linear_153_8)"/>
<path d="M66.5003 20.8333H51.917C51.917 22.4374 50.6045 23.7499 49.0003 23.7499C47.3962 23.7499 46.0837 22.4374 46.0837 20.8333H31.5003C28.292 20.8333 25.667 23.4583 25.667 26.6666V73.3333C25.667 76.5416 28.292 79.1666 31.5003 79.1666H66.5003C69.7087 79.1666 72.3337 76.5416 72.3337 73.3333V26.6666C72.3337 23.4583 69.7087 20.8333 66.5003 20.8333Z" fill="#455A64"/>
<path d="M66.5003 74.7916H31.5003C30.6253 74.7916 30.042 74.2083 30.042 73.3333V26.6666C30.042 25.7916 30.6253 25.2083 31.5003 25.2083H66.5003C67.3753 25.2083 67.9587 25.7916 67.9587 26.6666V73.3333C67.9587 74.2083 67.3753 74.7916 66.5003 74.7916Z" fill="white"/>
<path d="M51.9167 20.8333C51.9167 22.4374 50.6042 23.7499 49 23.7499C47.3958 23.7499 46.0833 22.4374 46.0833 20.8333H35.875V26.6666C35.875 28.2708 37.1875 29.5833 38.7917 29.5833H59.2083C60.8125 29.5833 62.125 28.2708 62.125 26.6666V20.8333H51.9167Z" fill="#90A4AE"/>
<path d="M49.0003 15C45.792 15 43.167 17.625 43.167 20.8333C43.167 24.0417 45.792 26.6667 49.0003 26.6667C52.2087 26.6667 54.8337 24.0417 54.8337 20.8333C54.8337 17.625 52.2087 15 49.0003 15ZM49.0003 23.75C47.3962 23.75 46.0837 22.4375 46.0837 20.8333C46.0837 19.2292 47.3962 17.9167 49.0003 17.9167C50.6045 17.9167 51.917 19.2292 51.917 20.8333C51.917 22.4375 50.6045 23.75 49.0003 23.75Z" fill="#90A4AE"/>
<path d="M58.6253 42.125L45.5003 55.25L39.3753 48.9792L35.7295 52.625L45.6462 62.3958L62.2712 45.7708L58.6253 42.125Z" fill="#4CAF50"/>
<defs>
<linearGradient id="paint0_linear_153_8" x1="10" y1="17" x2="81" y2="90.5" gradientUnits="userSpaceOnUse">
<stop stop-color="#DAFFC9"/>
<stop offset="1" stop-color="#B3D9A2"/>
</linearGradient>
</defs>
</svg>
