<svg width="100" height="100" viewBox="0 0 100 100" fill="none" xmlns="http://www.w3.org/2000/svg">
<circle cx="50" cy="50" r="50" fill="url(#paint0_linear_153_10)"/>
<path d="M52.0413 23.1667C50.8747 22.0001 49.1247 22.0001 47.958 23.1667L30.458 40.6667C29.2913 41.8334 29.2913 43.5834 30.458 44.7501C31.0413 45.3334 31.7705 45.6251 32.4997 45.6251C33.2288 45.6251 33.958 45.3334 34.5413 44.7501L52.0413 27.2501C53.208 26.0834 53.208 24.3334 52.0413 23.1667Z" fill="#2E7D32"/>
<path d="M69.5413 40.6667L52.0413 23.1667C50.8747 22.0001 49.1247 22.0001 47.958 23.1667C46.7913 24.3334 46.7913 26.0834 47.958 27.2501L65.458 44.7501C66.0413 45.3334 66.7705 45.6251 67.4997 45.6251C68.2288 45.6251 68.958 45.3334 69.5413 44.7501C70.708 43.5834 70.708 41.8334 69.5413 40.6667Z" fill="#1B5E20"/>
<path d="M69.542 74.7917H30.4587C29.0003 74.7917 27.8337 73.7708 27.542 72.4583L22.292 45.625H77.7087L72.3128 72.4583C72.0212 73.7708 70.8545 74.7917 69.542 74.7917Z" fill="#388E3C"/>
<path d="M77.7083 48.5417H22.2917C20.6875 48.5417 19.375 47.2292 19.375 45.6251V42.7084C19.375 41.1042 20.6875 39.7917 22.2917 39.7917H77.7083C79.3125 39.7917 80.625 41.1042 80.625 42.7084V45.6251C80.625 47.2292 79.3125 48.5417 77.7083 48.5417Z" fill="#4CAF50"/>
<path d="M59.917 51.1667L48.3962 62.6876L43.0003 57.1459L39.792 60.3543L48.3962 68.9584L63.1253 54.2292L59.917 51.1667Z" fill="white"/>
<defs>
<linearGradient id="paint0_linear_153_10" x1="10" y1="17" x2="81" y2="90.5" gradientUnits="userSpaceOnUse">
<stop stop-color="#DAFFC9"/>
<stop offset="1" stop-color="#B3D9A2"/>
</linearGradient>
</defs>
</svg>
