<svg width="100" height="100" viewBox="0 0 100 100" fill="none" xmlns="http://www.w3.org/2000/svg">
<circle cx="50" cy="50" r="50" fill="url(#paint0_linear_153_7)"/>
<path d="M53.669 62.6875C53.669 62.6875 59.5023 58.8958 60.669 58.3125C61.8356 57.7292 63.1481 57.4375 63.8773 58.0208C65.044 58.75 74.8148 65.1667 75.6898 65.75C76.5648 66.3333 76.8565 67.9375 75.8356 69.5417C74.669 71.1458 69.5648 77.5625 67.3773 77.4167C65.1898 77.4167 55.1273 78 37.7731 60.7917C20.419 43.4375 21.0023 33.375 21.0023 31.1875C21.0023 29 27.2731 23.75 28.8773 22.7292C30.4815 21.5625 32.0856 22 32.669 22.875C33.2523 23.75 39.669 33.5208 40.3981 34.6875C40.8356 35.4167 40.6898 36.7292 40.1065 37.8958C39.5231 39.0625 35.7315 44.8958 35.7315 44.8958C35.7315 44.8958 36.7523 48.9792 43.0231 55.3958C49.4398 61.6667 53.669 62.6875 53.669 62.6875Z" fill="#2196F3"/>
<path d="M66.2103 26.375H51.627V32.2083H66.2103C67.8145 32.2083 69.127 33.5208 69.127 35.125V49.7083H74.9603V35.125C74.9603 30.3125 71.0228 26.375 66.2103 26.375Z" fill="#3F51B5"/>
<path d="M56.0023 36.5833L46.2314 29.2917L56.0023 22V36.5833Z" fill="#3F51B5"/>
<defs>
<linearGradient id="paint0_linear_153_7" x1="10" y1="17" x2="81" y2="90.5" gradientUnits="userSpaceOnUse">
<stop stop-color="#DAFFC9"/>
<stop offset="1" stop-color="#B3D9A2"/>
</linearGradient>
</defs>
</svg>
