<svg width="100" height="100" viewBox="0 0 100 100" fill="none" xmlns="http://www.w3.org/2000/svg">
<circle cx="50" cy="50" r="50" fill="url(#paint0_linear_153_9)"/>
<path d="M49.9997 78.1666C66.108 78.1666 79.1663 65.1082 79.1663 48.9999C79.1663 32.8916 66.108 19.8333 49.9997 19.8333C33.8914 19.8333 20.833 32.8916 20.833 48.9999C20.833 65.1082 33.8914 78.1666 49.9997 78.1666Z" fill="#00ACC1"/>
<path d="M50.0003 72.3334C62.887 72.3334 73.3337 61.8867 73.3337 49.0001C73.3337 36.1134 62.887 25.6667 50.0003 25.6667C37.1137 25.6667 26.667 36.1134 26.667 49.0001C26.667 61.8867 37.1137 72.3334 50.0003 72.3334Z" fill="#EEEEEE"/>
<path d="M48.542 30.0417H51.4587V49.0001H48.542V30.0417Z" fill="black"/>
<path d="M60.6243 57.2455L58.2545 59.6167L48.7695 50.1317L51.1408 47.759L60.6243 57.2455Z" fill="black"/>
<path d="M49.9997 51.9166C51.6105 51.9166 52.9163 50.6107 52.9163 48.9999C52.9163 47.3891 51.6105 46.0833 49.9997 46.0833C48.3888 46.0833 47.083 47.3891 47.083 48.9999C47.083 50.6107 48.3888 51.9166 49.9997 51.9166Z" fill="black"/>
<path d="M50.0003 50.4584C50.8057 50.4584 51.4587 49.8055 51.4587 49.0001C51.4587 48.1947 50.8057 47.5417 50.0003 47.5417C49.1949 47.5417 48.542 48.1947 48.542 49.0001C48.542 49.8055 49.1949 50.4584 50.0003 50.4584Z" fill="#00ACC1"/>
<defs>
<linearGradient id="paint0_linear_153_9" x1="10" y1="17" x2="81" y2="90.5" gradientUnits="userSpaceOnUse">
<stop stop-color="#DAFFC9"/>
<stop offset="1" stop-color="#B3D9A2"/>
</linearGradient>
</defs>
</svg>
