<svg width="20" height="21" viewBox="0 0 20 21" fill="none" xmlns="http://www.w3.org/2000/svg">
<g clip-path="url(#clip0_0_5117)">
<path d="M17.0701 13.632C16.0354 12.5429 14.8038 11.7366 13.46 11.2485C14.8992 10.2051 15.8447 8.45891 15.8447 6.48438C15.8447 3.2966 13.3809 0.703125 10.3525 0.703125C7.32415 0.703125 4.86035 3.2966 4.86035 6.48438C4.86035 8.45891 5.80586 10.2051 7.24507 11.2485C5.90134 11.7366 4.66976 12.5429 3.63504 13.632C1.84072 15.5208 0.852539 18.032 0.852539 20.7031H2.33691C2.33691 16.0507 5.9327 12.2656 10.3525 12.2656C14.7724 12.2656 18.3682 16.0507 18.3682 20.7031H19.8525C19.8525 18.032 18.8644 15.5208 17.0701 13.632ZM10.3525 10.7031C8.14264 10.7031 6.34473 8.81063 6.34473 6.48438C6.34473 4.15813 8.14264 2.26562 10.3525 2.26562C12.5624 2.26562 14.3604 4.15813 14.3604 6.48438C14.3604 8.81063 12.5624 10.7031 10.3525 10.7031Z" fill="white"/>
</g>
<defs>
<clipPath id="clip0_0_5117">
<rect width="19" height="20" fill="white" transform="translate(0.852539 0.703125)"/>
</clipPath>
</defs>
</svg>
